<svg xmlns="http://www.w3.org/2000/svg" width="24" height="24" style=""><rect id="backgroundrect" width="100%" height="100%" x="0" y="0" fill="none" stroke="none" style="" class=""/>
  
  
<g class="currentLayer" style=""><title>Layer 1</title><path fill="#fe477b" d="M21.579999923706055,11.399999618530273 L17.299999237060547,4.010000228881836 l-0.3499999940395355,-0.6000000238418579 H7.039999961853027 l-0.3499999940395355,0.6000000238418579 l-4.269999980926514,7.389999866485596 l-0.3499999940395355,0.6000000238418579 l0.3499999940395355,0.6000000238418579 l4.269999980926514,7.389999866485596 l0.3499999940395355,0.6000000238418579 h9.920000076293945 l0.3499999940395355,-0.6000000238418579 l4.28000020980835,-7.389999866485596 l0.3499999940395355,-0.6000000238418579 l-0.36000001430511475,-0.6000000238418579 zM8.510000228881836,10.369999885559082 L6.880000114440918,12 l1.6299999952316284,1.6299999952316284 v2.7300000190734863 L4.150000095367432,12 l4.369999885559082,-4.369999885559082 v2.740000009536743 zm3.119999885559082,6.929999828338623 l-2.0399999618530273,-0.6299999952316284 l3.0999999046325684,-9.979999542236328 l2.0399999618530273,0.6399999856948853 l-3.0999999046325684,9.970000267028809 zm3.859999895095825,-0.9300000071525574 v-2.7300000190734863 L17.1200008392334,12 l-1.6299999952316284,-1.6299999952316284 V7.630000114440918 L19.850000381469727,12 l-4.360000133514404,4.369999885559082 z" id="svg_1" class="" fill-opacity="1"/><path fill="none" d="M32.578125,12.16249980777502 h24 v24 H32.578125 z" id="svg_2" class=""/></g></svg>